<?xml version="1.0" standalone="no"?>
<!DOCTYPE svg PUBLIC "-//W3C//DTD SVG 20010904//EN"
 "http://www.w3.org/TR/2001/REC-SVG-20010904/DTD/svg10.dtd">
<svg version="1.0" xmlns="http://www.w3.org/2000/svg"
 width="2048.000000pt" height="2048.000000pt" viewBox="0 0 2048.000000 2048.000000"
 preserveAspectRatio="xMidYMid meet">
<metadata>
Created by potrace 1.14, written by Peter Selinger 2001-2017
</metadata>
<g transform="translate(0.000000,2048.000000) scale(0.100000,-0.100000)"
fill="#000000" stroke="none">
<path d="M14920 16796 l0 -644 -77 -7 c-153 -12 -455 -56 -600 -85 -1051 -217
-1841 -760 -2237 -1539 -199 -391 -291 -785 -303 -1297 -20 -834 188 -1479
641 -1987 77 -87 268 -255 413 -363 255 -191 499 -337 858 -514 360 -177 628
-287 1060 -435 l240 -83 3 -1906 2 -1906 -86 0 c-190 0 -577 38 -874 86 -617
99 -1338 308 -1885 546 -88 38 -170 72 -182 75 l-23 5 0 -746 0 -747 78 -36
c380 -173 962 -341 1447 -417 380 -60 774 -100 1136 -116 134 -6 277 -14 317
-16 l72 -6 0 -809 0 -809 565 0 565 0 0 845 c0 668 3 846 13 849 6 2 71 12
142 21 337 43 697 126 1025 235 580 192 1010 445 1389 814 491 480 754 1027
822 1710 15 155 6 619 -15 776 -84 615 -295 1059 -691 1456 -257 258 -523 433
-991 653 -465 219 -933 394 -1649 615 l-40 13 -3 1898 -2 1898 87 -7 c136 -11
433 -53 611 -86 429 -80 1119 -279 1577 -455 83 -31 156 -58 164 -58 13 -2
193 474 455 1204 l35 97 -147 57 c-363 142 -683 247 -1082 353 -575 153 -929
207 -1562 237 l-138 7 0 634 0 634 -565 0 -565 0 0 -644z m0 -3691 c0 -1070
-4 -1685 -10 -1685 -24 0 -354 105 -482 154 -661 251 -965 516 -1117 972 -123
365 -120 835 6 1198 127 368 392 665 740 832 187 90 458 164 718 198 61 7 118
14 128 15 16 1 17 -85 17 -1684z m1355 -3696 c346 -98 598 -191 840 -309 477
-233 692 -485 787 -924 19 -88 22 -131 22 -341 0 -223 -2 -249 -27 -366 -69
-325 -211 -585 -438 -804 -52 -50 -123 -111 -159 -137 -256 -180 -607 -309
-1043 -383 -82 -14 -162 -25 -178 -25 l-29 0 0 1675 0 1675 28 -6 c15 -4 104
-28 197 -55z"/>
<path d="M3020 12204 c-306 -26 -511 -79 -719 -184 -132 -66 -227 -136 -350
-254 -211 -205 -342 -397 -482 -706 -159 -351 -255 -692 -343 -1217 -45 -264
-96 -635 -96 -695 l0 -28 520 0 519 0 5 33 c3 17 12 102 21 187 49 480 139
897 255 1182 123 303 293 493 519 581 291 113 672 54 986 -152 164 -107 451
-351 722 -613 415 -401 669 -612 1018 -847 372 -250 765 -371 1213 -371 397 0
711 89 976 278 110 78 338 306 428 428 200 270 370 638 487 1052 82 289 204
892 241 1182 5 47 13 100 16 118 l5 32 -533 -2 -533 -3 -36 -240 c-82 -543
-189 -972 -314 -1265 -166 -387 -428 -559 -809 -529 -235 18 -455 116 -696
310 -154 123 -379 315 -580 494 -407 363 -541 476 -773 649 -496 369 -778 502
-1189 561 -103 15 -393 26 -478 19z"/>
</g>
</svg>
